<svg width="87" height="67" viewBox="0 0 87 67" fill="none" xmlns="http://www.w3.org/2000/svg">
<path d="M27.9678 66.6494C19.6478 66.6494 13.0558 63.8014 8.19175 58.1054C3.39175 52.4094 0.99175 44.3774 0.99175 34.0094C0.99175 26.7134 2.14375 20.6014 4.44775 15.6734C6.75175 10.6814 9.95175 6.93736 14.0478 4.44136C18.2078 1.94536 23.0398 0.697355 28.5438 0.697355C36.7998 0.697355 43.3278 3.54535 48.1278 9.24135C52.9918 14.8734 55.4238 23.0014 55.4238 33.6254C55.4238 40.7294 54.2718 46.7454 51.9678 51.6734C49.7278 56.5374 46.5598 60.2494 42.4638 62.8094C38.3678 65.3694 33.5358 66.6494 27.9678 66.6494ZM28.4478 54.4574C30.4318 54.4574 32.2878 53.8174 34.0158 52.5374C35.7438 51.1934 37.1198 49.0814 38.1438 46.2014C39.1678 43.2574 39.6798 39.3214 39.6798 34.3934C39.6798 27.3534 38.6558 22.0094 36.6078 18.3614C34.6238 14.6494 31.8078 12.7934 28.1598 12.7934C26.2398 12.7934 24.3838 13.4654 22.5918 14.8094C20.8638 16.1534 19.4558 18.3614 18.3678 21.4334C17.3438 24.4414 16.8318 28.5374 16.8318 33.7214C16.8318 41.0174 17.9198 46.2974 20.0958 49.5614C22.3358 52.8254 25.1198 54.4574 28.4478 54.4574ZM70.4598 65.3054V23.5454H61.3398V10.0094C64.2838 10.0094 66.6838 9.49736 68.5398 8.47336C70.4598 7.44936 71.7398 5.27336 72.3798 1.94536H86.0118V65.3054H70.4598Z" fill="#FF7332"/>
</svg>
