<svg width="112" height="67" viewBox="0 0 112 67" fill="none" xmlns="http://www.w3.org/2000/svg">
<path d="M27.1084 66.6494C18.7884 66.6494 12.1964 63.8014 7.33238 58.1054C2.53238 52.4094 0.132375 44.3774 0.132375 34.0094C0.132375 26.7134 1.28438 20.6014 3.58838 15.6734C5.89238 10.6814 9.09238 6.93736 13.1884 4.44136C17.3484 1.94536 22.1804 0.697355 27.6844 0.697355C35.9404 0.697355 42.4684 3.54535 47.2684 9.24135C52.1324 14.8734 54.5644 23.0014 54.5644 33.6254C54.5644 40.7294 53.4124 46.7454 51.1084 51.6734C48.8684 56.5374 45.7004 60.2494 41.6044 62.8094C37.5084 65.3694 32.6764 66.6494 27.1084 66.6494ZM27.5884 54.4574C29.5724 54.4574 31.4284 53.8174 33.1564 52.5374C34.8844 51.1934 36.2604 49.0814 37.2844 46.2014C38.3084 43.2574 38.8204 39.3214 38.8204 34.3934C38.8204 27.3534 37.7964 22.0094 35.7484 18.3614C33.7644 14.6494 30.9484 12.7934 27.3004 12.7934C25.3804 12.7934 23.5244 13.4654 21.7324 14.8094C20.0044 16.1534 18.5964 18.3614 17.5084 21.4334C16.4844 24.4414 15.9724 28.5374 15.9724 33.7214C15.9724 41.0174 17.0604 46.2974 19.2364 49.5614C21.4764 52.8254 24.2604 54.4574 27.5884 54.4574ZM61.6301 65.3054V49.7534L86.3021 33.8174C88.5421 32.3454 90.5901 30.5534 92.4461 28.4414C94.3021 26.3294 95.2301 23.8014 95.2301 20.8574C95.2301 18.4894 94.4301 16.6334 92.8301 15.2894C91.2301 13.9454 89.0221 13.2734 86.2061 13.2734C83.3261 13.2734 81.1501 13.9134 79.6781 15.1934C78.2061 16.4734 77.2461 18.1054 76.7981 20.0894C76.3501 22.0734 76.1261 24.1214 76.1261 26.2334L61.3421 23.7374C61.0221 16.5054 63.1021 10.8094 67.5821 6.64936C72.0621 2.48936 78.3981 0.409353 86.5901 0.409353C93.8221 0.409353 99.6141 2.07335 103.966 5.40136C108.382 8.72936 110.59 13.5614 110.59 19.8974C110.59 24.0574 109.726 27.6734 107.998 30.7454C106.27 33.8174 104.062 36.4734 101.374 38.7134C98.7501 40.9534 96.0301 42.9054 93.2141 44.5694L79.6781 52.4414V53.1134L111.358 52.6334V65.3054H61.6301Z" fill="#FF7332"/>
</svg>
