<svg width="114" height="67" viewBox="0 0 114 67" fill="none" xmlns="http://www.w3.org/2000/svg">
<path d="M27.7803 66.6188C19.4603 66.6188 12.8683 63.7708 8.00425 58.0748C3.20425 52.3788 0.80425 44.3468 0.80425 33.9788C0.80425 26.6828 1.95625 20.5708 4.26025 15.6428C6.56425 10.6508 9.76425 6.90678 13.8603 4.41078C18.0203 1.91478 22.8523 0.666777 28.3563 0.666777C36.6123 0.666777 43.1403 3.51478 47.9403 9.21078C52.8043 14.8428 55.2363 22.9708 55.2363 33.5948C55.2363 40.6988 54.0843 46.7148 51.7803 51.6428C49.5403 56.5068 46.3723 60.2188 42.2763 62.7788C38.1803 65.3388 33.3483 66.6188 27.7803 66.6188ZM28.2603 54.4268C30.2443 54.4268 32.1003 53.7868 33.8283 52.5068C35.5563 51.1628 36.9323 49.0508 37.9563 46.1708C38.9803 43.2268 39.4923 39.2908 39.4923 34.3628C39.4923 27.3228 38.4683 21.9788 36.4203 18.3308C34.4363 14.6188 31.6203 12.7628 27.9723 12.7628C26.0523 12.7628 24.1963 13.4348 22.4043 14.7788C20.6763 16.1228 19.2683 18.3308 18.1803 21.4028C17.1563 24.4108 16.6443 28.5068 16.6443 33.6908C16.6443 40.9868 17.7323 46.2668 19.9083 49.5308C22.1483 52.7948 24.9323 54.4268 28.2603 54.4268ZM86.398 66.6188C77.822 66.6188 71.422 64.9868 67.198 61.7228C62.974 58.4588 60.702 53.7868 60.382 47.7068L74.59 44.0588C74.654 47.3228 75.71 49.9148 77.758 51.8348C79.87 53.7548 82.91 54.7148 86.878 54.7148C90.142 54.7148 92.766 53.9788 94.75 52.5068C96.798 51.0348 97.822 48.7948 97.822 45.7868C97.822 41.9468 95.806 39.1628 91.774 37.4348C87.742 35.6428 81.342 35.1948 72.574 36.0908V27.3548L92.734 14.8748V14.2028L63.646 14.3948V1.81878H109.342V15.2588L89.278 28.3148V29.1788C95.166 28.7308 99.87 29.3068 103.39 30.9068C106.974 32.5068 109.534 34.7148 111.07 37.5308C112.67 40.2828 113.47 43.3228 113.47 46.6508C113.47 52.7948 111.23 57.6588 106.75 61.2428C102.27 64.8268 95.486 66.6188 86.398 66.6188Z" fill="#FF7332"/>
</svg>
