<svg width="55" height="55" viewBox="0 0 55 55" fill="none" xmlns="http://www.w3.org/2000/svg">
<path d="M28.9583 35.299C28.3702 35.513 27.7215 35.2105 27.5075 34.6225C27.0011 33.2313 26.7611 31.9577 26.786 30.8044C26.7969 29.9378 26.9852 28.9999 27.3462 27.9903C27.6144 27.2535 28.1627 26.1198 28.9966 24.5917C29.8297 23.0615 30.313 21.909 30.4479 21.1314C30.5828 20.3538 30.5086 19.5852 30.2314 18.8235C29.7293 17.4441 28.7503 16.4305 27.2949 15.778C25.8395 15.1256 24.3297 15.0851 22.7668 15.654C21.2572 16.2034 20.1686 17.136 19.5022 18.449C19.0156 19.4082 18.8159 20.5849 18.9071 21.9775C18.9691 22.9338 18.3276 23.793 17.3949 24.0118C16.2133 24.2899 15.0594 23.4405 14.9844 22.2275C14.8691 20.3632 15.2084 18.7044 15.9997 17.2499C17.0977 15.2256 18.98 13.7292 21.646 12.7589C24.4679 11.7318 26.9989 11.6799 29.2397 12.6052C31.4805 13.5305 32.9951 15.0822 33.788 17.2608C34.247 18.5218 34.374 19.7918 34.1704 21.0682C33.9675 22.3466 33.2815 24.06 32.1172 26.2091C31.3356 27.6534 30.8549 28.6843 30.6764 29.299C30.4979 29.9137 30.4387 30.5677 30.4981 31.259C30.542 31.7727 30.7051 32.491 30.986 33.41C31.1632 33.9891 30.8539 34.6068 30.2856 34.8136L28.9575 35.297L28.9583 35.299ZM29.5504 40.8492C29.1445 39.7342 29.7194 38.5015 30.8343 38.0957C31.9493 37.6899 33.182 38.2647 33.5878 39.3797C33.9936 40.4946 33.4188 41.7274 32.3039 42.1332C31.1889 42.539 29.9562 41.9641 29.5504 40.8492Z" fill="white"/>
</svg>
