<svg width="60" height="61" viewBox="0 0 60 61" fill="none" xmlns="http://www.w3.org/2000/svg">
<g clip-path="url(#clip0_2092_3254)">
<path d="M20.2337 50.5851C18.199 49.7214 17.2746 47.2963 18.1732 45.1794L18.8269 43.6393C19.7256 41.5222 22.1119 40.5026 24.1466 41.3663C26.1813 42.2299 27.1057 44.655 26.2071 46.772L25.5534 48.3121C24.6549 50.429 22.2684 51.4487 20.2337 50.5851ZM23.5753 42.7128C22.283 42.1642 20.7569 42.8363 20.1735 44.2107L19.5198 45.7508C18.9364 47.1253 19.513 48.6899 20.8052 49.2384C22.0975 49.7869 23.6236 49.1149 24.207 47.7404L24.8607 46.2003C25.4443 44.8259 24.8676 43.2613 23.5753 42.7128ZM26.9351 39.4867C26.9337 39.4861 26.9323 39.4855 26.9311 39.485L24.1618 38.2899C23.5153 38.1044 22.9718 37.6528 22.6642 37.0427C22.334 36.3881 22.3041 35.617 22.5821 34.9268C23.9472 31.5377 26.3235 29.3191 29.6451 28.3328C30.0568 28.2104 30.48 28.0931 30.9279 27.9689C34.1866 27.0651 37.88 26.0406 38.7923 22.7064C39.1856 21.269 38.7701 20.1074 38.3522 19.3859C37.6901 18.2429 36.5711 17.3961 35.2835 17.062C33.4356 16.5831 31.2994 17.1459 29.4229 18.6056L29.4048 18.6197C28.1832 19.5691 26.4727 19.3939 25.5106 18.2209L24.0261 16.4111C23.0573 15.2302 23.1916 13.4583 24.3319 12.3774C26.6361 10.1931 29.5418 8.92438 32.7347 8.70843C35.6685 8.50992 38.6769 9.23467 41.205 10.7484C46.2635 13.7778 48.4322 19.2184 46.8649 24.947C45.6865 29.2543 42.5821 32.2745 37.6385 33.9236C37.0568 34.1177 36.4669 34.2875 35.8967 34.4517C33.3763 35.1775 31.1997 35.8042 29.892 38.2101C29.3164 39.2688 28.1428 39.808 27.0375 39.5215C27.0024 39.5124 26.9682 39.5008 26.9351 39.4867ZM36.5467 15.9508C37.8282 16.4948 38.9188 17.4462 39.6178 18.6527C40.4063 20.0139 40.6142 21.5905 40.203 23.0923C39.0713 27.2276 34.7727 28.42 31.3188 29.3781C30.8775 29.5005 30.4605 29.6161 30.0614 29.7347C27.1482 30.5998 25.1456 32.4769 23.9388 35.4732C23.818 35.773 23.8295 36.105 23.97 36.3837C24.0995 36.6404 24.3189 36.8196 24.5882 36.89C24.6245 36.8992 24.6614 36.9105 24.6944 36.9264L27.4513 38.1163C27.8918 38.206 28.3612 37.9626 28.6066 37.5113C30.2066 34.5676 32.8933 33.794 35.4917 33.0459C36.0477 32.8858 36.6225 32.7205 37.1754 32.536C41.6898 31.0299 44.3977 28.4213 45.4541 24.5608C46.8618 19.4158 44.9924 14.7214 40.4535 12.0031C36.4394 9.59951 29.9966 9.02261 25.338 13.4389C24.7616 13.9853 24.6802 14.9025 25.1568 15.4833L26.6414 17.2932C27.1045 17.8574 27.9065 17.9314 28.5072 17.4649L28.5249 17.4511C30.7624 15.7104 33.3598 15.0525 35.6505 15.646C35.9573 15.7255 36.257 15.8278 36.5467 15.9508Z" fill="#F0B428"/>
</g>
<defs>
<clipPath id="clip0_2092_3254">
<rect width="45" height="45" fill="white" transform="translate(18.5781 0.996582) rotate(23)"/>
</clipPath>
</defs>
</svg>
