<svg width="44" height="44" viewBox="0 0 44 44" fill="none" xmlns="http://www.w3.org/2000/svg">
<path d="M13.6122 22.9453C13.3147 22.9453 13.0345 22.8052 12.856 22.5672L11.0428 20.1497H5.22532C3.16256 20.1497 1.48438 18.4715 1.48438 16.4087V3.74095C1.48437 1.67819 3.16265 0 5.22532 0H21.9992C24.062 0 25.7401 1.67819 25.7401 3.74095V16.4086C25.7401 18.4714 24.062 20.1496 21.9992 20.1496H16.1817L14.3685 22.5672C14.19 22.8052 13.9097 22.9453 13.6122 22.9453ZM5.22532 1.89062C4.20507 1.89062 3.375 2.7207 3.375 3.74095V16.4086C3.375 17.4289 4.20507 18.259 5.22532 18.259H11.5154C11.8129 18.259 12.0932 18.399 12.2717 18.6371L13.6122 20.4244L14.9528 18.6371C15.1313 18.399 15.4115 18.259 15.709 18.259H21.9992C23.0195 18.259 23.8495 17.4289 23.8495 16.4086V3.74095C23.8495 2.7207 23.0195 1.89062 21.9992 1.89062H5.22532Z" fill="#F0B428"/>
<path d="M17.7603 13.0203C18.3284 12.1944 18.6609 11.1941 18.6609 10.1182C18.6609 7.28482 16.3552 4.97998 13.5219 4.97998C10.6885 4.97998 8.38281 7.28482 8.38281 10.1182C8.38281 12.9515 10.6885 15.2572 13.5219 15.2572C14.5978 15.2572 15.5973 14.9247 16.4231 14.3566L17.047 14.9805C17.2318 15.1644 17.4733 15.2572 17.7156 15.2572C17.9571 15.2572 18.1995 15.1644 18.3834 14.9805C18.7529 14.611 18.7529 14.0129 18.3834 13.6433L17.7603 13.0203ZM13.5219 13.3666C11.7309 13.3666 10.2734 11.9091 10.2734 10.1182C10.2734 8.32725 11.7309 6.87061 13.5219 6.87061C15.3128 6.87061 16.7703 8.32725 16.7703 10.1182C16.7703 10.6708 16.632 11.1915 16.387 11.647L14.8891 10.1491C14.5196 9.77959 13.9215 9.77959 13.552 10.1491C13.1833 10.5178 13.1833 11.1168 13.552 11.4854L15.0498 12.9833C14.5944 13.2283 14.0736 13.3666 13.5219 13.3666Z" fill="#F0B428"/>
<path d="M38.7726 44H21.9988C19.936 44 18.2578 42.3218 18.2578 40.2591V27.5913C18.2578 25.5285 19.936 23.8503 21.9988 23.8503H27.8163L29.6295 21.4328C29.808 21.1947 30.0882 21.0547 30.3857 21.0547C30.6833 21.0547 30.9635 21.1948 31.142 21.4328L32.9552 23.8503H38.7726C40.8354 23.8503 42.5136 25.5285 42.5136 27.5913V40.259C42.5136 42.3218 40.8353 44 38.7726 44ZM21.9988 25.7409C20.9785 25.7409 20.1484 26.571 20.1484 27.5913V40.259C20.1484 41.2792 20.9785 42.1093 21.9988 42.1093H38.7726C39.7929 42.1093 40.623 41.2792 40.623 40.259V27.5913C40.623 26.571 39.7929 25.7409 38.7726 25.7409H32.4825C32.185 25.7409 31.9048 25.6009 31.7263 25.3628L30.3857 23.5755L29.0452 25.3628C28.8667 25.601 28.5865 25.7409 28.289 25.7409H21.9988Z" fill="#F0B428"/>
<path d="M34.7523 37.7111L31.2581 29.3245C31.1111 28.9721 30.7665 28.7427 30.3849 28.7427C30.0034 28.7427 29.6596 28.9721 29.5127 29.3245L26.0185 37.7111C25.8174 38.1932 26.0451 38.7467 26.5272 38.9478C27.0093 39.148 27.5628 38.9203 27.763 38.4381L28.3938 36.9239H32.3761L33.0069 38.4381C33.1582 38.8017 33.5096 39.0208 33.88 39.0208C34.0012 39.0208 34.1241 38.9967 34.2435 38.9478C34.7257 38.7467 34.9534 38.1932 34.7523 37.7111ZM29.1818 35.0333L30.3849 32.1458L31.5881 35.0333H29.1818Z" fill="#F0B428"/>
</svg>
